grf
version=1
nRows=11
nColumns=37
inDegrees=no
endheader
time	ground_force_1_vx	ground_force_1_vy	ground_force_1_vz	ground_force_1_px	ground_force_1_py	ground_force_1_pz	ground_moment_1_mx	ground_moment_1_my	ground_moment_1_mz	ground_force_2_vx	ground_force_2_vy	ground_force_2_vz	ground_force_2_px	ground_force_2_py	ground_force_2_pz	ground_moment_2_mx	ground_moment_2_my	ground_moment_2_mz	ground_force_3_vx	ground_force_3_vy	ground_force_3_vz	ground_force_3_px	ground_force_3_py	ground_force_3_pz	ground_moment_3_mx	ground_moment_3_my	ground_moment_3_mz	ground_force_4_vx	ground_force_4_vy	ground_force_4_vz	ground_force_4_px	ground_force_4_py	ground_force_4_pz	ground_moment_4_mx	ground_moment_4_my	ground_moment_4_mz
      1.66000000	      0.00000000	     -0.00000000	      0.00000000	      0.00000000	      0.00000000	      0.00000000	      0.00000000	      0.00000000	      0.00000000	     -6.42477894	     55.89286804	   -371.55169678	   -310.03114348	  -1097.26896841	      0.00000000	      0.00000000	      0.00000000	   9007.95280958	    -11.52763990	    -60.42152685	   -451.48434448	   -325.89180249	   -631.10302088	      0.00000000	      0.00000000	     -0.00000000	 -14600.33632185	    -35.15884256	     16.37614748	     74.78540802	    606.69557924	   -563.65454059	      0.00000000	      0.00000000	     -0.00000000	   -142.76986801
      1.67000000	      0.00000000	     -0.00000000	      0.00000000	      0.00000000	      0.00000000	      0.00000000	      0.00000000	      0.00000000	      0.00000000	     -7.05102634	     55.88306808	   -369.75253296	   -310.32752932	  -1098.97134281	      0.00000000	      0.00000000	      0.00000000	   9255.61336207	    -11.36497340	    -58.29728218	   -442.38821411	   -325.34947013	   -631.39368579	      0.00000000	      0.00000000	     -0.00000000	 -14301.40165945	    -35.42381143	     16.46444630	     76.16343689	    598.44365081	   -563.39510007	      0.00000000	     -0.00000000	     -0.00000000	     73.39088908
      1.68000000	      0.00000000	     -0.00000000	      0.00000000	      0.00000000	      0.00000000	      0.00000000	      0.00000000	      0.00000000	      0.00000000	     -8.03069305	     56.31295395	   -364.13546753	   -309.37925816	  -1099.07774495	      0.00000000	      0.00000000	      0.00000000	   9109.07905421	    -12.59522272	    -57.40568051	   -434.40530396	   -324.65260347	   -630.66077543	      0.00000000	      0.00000000	     -0.00000000	 -14053.47700910	    -35.07308055	     16.18914339	     73.03311157	    618.58193548	   -568.03289541	      0.00000000	      0.00000000	     -0.00000000	    -20.01339264
      1.69000000	      0.00000000	     -0.00000000	      0.00000000	      0.00000000	      0.00000000	      0.00000000	      0.00000000	      0.00000000	      0.00000000	     -8.66779423	     55.35716248	   -358.78100586	   -307.67663196	  -1099.43169451	      0.00000000	      0.00000000	      0.00000000	   8820.34003773	    -12.87364593	    -56.17610056	   -427.68994141	   -323.04222217	   -629.92844261	      0.00000000	      0.00000000	     -0.00000000	 -13597.98751831	    -35.25214626	     16.19638560	     76.13499451	    603.02831381	   -559.80526790	      0.00000000	      0.00000000	     -0.00000000	   -128.64992260
      1.70000000	      0.00000000	     -0.00000000	      0.00000000	      0.00000000	      0.00000000	      0.00000000	      0.00000000	      0.00000000	      0.00000000	     -9.46567822	     55.17546463	   -354.88653564	   -307.73291419	  -1100.15125031	      0.00000000	      0.00000000	      0.00000000	   8744.00655712	    -13.57091613	    -53.96272159	   -417.94897461	   -322.68895148	   -631.27870571	      0.00000000	      0.00000000	     -0.00000000	 -13206.77950056	    -35.16100552	     16.11226580	     76.11908722	    599.89771572	   -564.10082941	      0.00000000	      0.00000000	      0.00000000	    176.29407623
      1.71000000	      0.00000000	     -0.00000000	      0.00000000	      0.00000000	      0.00000000	      0.00000000	      0.00000000	      0.00000000	      0.00000000	    -10.33887196	     54.73942184	   -350.73037720	   -308.47302865	  -1098.76814114	      0.00000000	      0.00000000	      0.00000000	   8924.07341490	    -13.30662227	    -51.84856680	   -409.29421997	   -321.88608793	   -632.05552148	      0.00000000	      0.00000000	     -0.00000000	 -13004.51022784	    -35.50136045	     16.03225065	     76.16426849	    605.29708050	   -560.50635626	      0.00000000	      0.00000000	     -0.00000000	   -149.27008584
      1.72000000	      0.00000000	     -0.00000000	      0.00000000	      0.00000000	      0.00000000	      0.00000000	      0.00000000	      0.00000000	      0.00000000	    -10.17396832	     54.09620667	   -351.37475586	   -308.59633999	  -1099.52884075	      0.00000000	      0.00000000	      0.00000000	   9065.56684858	    -13.83498628	    -49.91534684	   -401.51669312	   -321.50643078	   -632.19525614	      0.00000000	      0.00000000	     -0.00000000	 -12552.33012909	    -35.76920175	     16.37447670	     76.49166870	    602.01962308	   -560.24560313	      0.00000000	     -0.00000000	     -0.00000000	     -7.51660120
      1.73000000	      0.00000000	     -0.00000000	      0.00000000	      0.00000000	      0.00000000	      0.00000000	      0.00000000	      0.00000000	      0.00000000	    -10.70118427	     53.66872025	   -349.31112671	   -310.59808232	  -1097.16846442	      0.00000000	      0.00000000	      0.00000000	   9154.82536932	    -13.74416672	    -47.61336779	   -393.89819336	   -321.03196389	   -632.70431022	      0.00000000	      0.00000000	     -0.00000000	 -12396.26264733	    -35.15510037	     16.10456774	     74.80991364	    606.64956846	   -563.40329158	      0.00000000	      0.00000000	      0.00000000	     16.39947532
      1.74000000	      0.00000000	     -0.00000000	      0.00000000	      0.00000000	      0.00000000	      0.00000000	      0.00000000	      0.00000000	      0.00000000	    -10.52267170	     53.74355316	   -351.02783203	   -311.47193092	  -1097.85578762	      0.00000000	      0.00000000	      0.00000000	   9141.54572586	    -13.91530629	    -45.85323594	   -387.93167114	   -321.95609137	   -632.35955296	      0.00000000	      0.00000000	     -0.00000000	 -12077.52720258	    -35.85159159	     16.37447671	     75.43803406	    607.70805314	   -563.63760743	      0.00000000	      0.00000000	      0.00000000	     61.28947802
      1.75000000	      0.00000000	     -0.00000000	      0.00000000	      0.00000000	      0.00000000	      0.00000000	      0.00000000	      0.00000000	      0.00000000	    -10.70526123	     53.65650177	   -348.96743774	   -312.26897887	  -1098.07109152	      0.00000000	      0.00000000	      0.00000000	   9335.61798763	    -13.39958008	    -44.51835897	   -383.37683105	   -321.39351906	   -632.09478378	      0.00000000	      0.00000000	     -0.00000000	 -11908.88923922	    -35.33829739	     16.10678219	     75.81430054	    602.07550382	   -561.12997373	      0.00000000	      0.00000000	      0.00000000	    112.93512359
      1.76000000	      0.00000000	     -0.00000000	      0.00000000	      0.00000000	      0.00000000	      0.00000000	      0.00000000	      0.00000000	      0.00000000	    -11.22726822	     53.13055038	   -348.97674561	   -313.22013735	  -1096.63448839	      0.00000000	      0.00000000	      0.00000000	   9293.91100510	    -13.85192490	    -43.72356294	   -377.12649536	   -320.58813247	   -632.72609252	      0.00000000	      0.00000000	     -0.00000000	 -11529.75222217	    -35.41654826	     16.27771496	     77.15648651	    598.50681147	   -559.37004530	      0.00000000	      0.00000000	     -0.00000000	    -47.54603244
